<?xml version="1.0" encoding="utf-8"?>
<!-- Generator: Adobe Illustrator 16.0.2, SVG Export Plug-In . SVG Version: 6.00 Build 0)  -->
<!DOCTYPE svg PUBLIC "-//W3C//DTD SVG 1.0//EN" "http://www.w3.org/TR/2001/REC-SVG-20010904/DTD/svg10.dtd">
<svg version="1.0" id="Money_x5F_order" xmlns="http://www.w3.org/2000/svg" xmlns:xlink="http://www.w3.org/1999/xlink" x="0px"
	 y="0px" width="512px" height="390px" viewBox="0 68.5 512 390" enable-background="new 0 68.5 512 390" xml:space="preserve">
<rect x="77.682" y="413.656" fill="#A3D133" width="12.389" height="10"/>
<rect x="177.854" y="344.586" fill="#A3D133" width="93.387" height="10"/>
<rect x="177.854" y="318.586" fill="#A3D133" width="152.387" height="10"/>
<rect x="401.283" y="297.037" fill="#A3D133" width="10" height="36.338"/>
<polygon fill="#A3D133" points="411.283,231.856 48.383,231.856 48.383,404.488 339.578,404.488 339.578,394.488 58.383,394.488 
	58.383,241.856 401.283,241.856 401.283,282.512 411.283,282.512 "/>
<polygon fill="#A3D133" points="60.542,172.695 66.787,201.901 76.566,199.81 72.412,180.382 447.232,100.214 473.052,220.925 
	431.016,229.917 431.016,212.688 300.749,212.688 386.68,194.311 384.587,184.532 252.932,212.688 100.46,212.688 96.632,194.802 
	431.942,123.083 440.446,162.844 450.226,160.752 439.63,111.213 84.762,187.115 90.234,212.688 27.713,212.688 27.713,423.656 
	64.341,423.656 64.341,413.656 37.713,413.656 37.713,222.688 421.016,222.688 421.016,346.122 359.133,346.122 359.133,391.885 
	369.133,391.885 369.133,356.122 414.652,356.122 361.934,413.656 102.935,413.656 102.935,423.656 366.334,423.656 
	431.016,353.066 431.016,240.142 468.796,232.061 437.293,284.705 445.873,289.84 484.287,225.647 454.92,88.344 "/>
<rect x="433.985" y="188.766" transform="matrix(-0.2091 -0.9779 0.9779 -0.2091 357.221 676.4431)" fill="#A3D133" width="36.338" height="10.001"/>
<text transform="matrix(1 0 0 1 81.0347 359.1641)" fill="#A3D133" font-family="'Calibri'" font-size="132.9593">5</text>
<text transform="matrix(1 0 0 1 176.4976 303.7305)" fill="#A3D133" font-family="'Calibri-Bold'" font-size="42.7935">БАЛЛОВ</text>
</svg>
