<?xml version="1.0" encoding="utf-8"?>
<!-- Generator: Adobe Illustrator 16.0.2, SVG Export Plug-In . SVG Version: 6.00 Build 0)  -->
<!DOCTYPE svg PUBLIC "-//W3C//DTD SVG 1.0//EN" "http://www.w3.org/TR/2001/REC-SVG-20010904/DTD/svg10.dtd">
<svg version="1.0" id="Coupon" xmlns="http://www.w3.org/2000/svg" xmlns:xlink="http://www.w3.org/1999/xlink" x="0px" y="0px"
	 width="512px" height="390px" viewBox="0 57.5 512 390" enable-background="new 0 57.5 512 390" xml:space="preserve">
<g>
	<path fill="#0062bd" d="M209.398,185.957c-10.781,3.579-16.642,15.261-13.064,26.043c2.867,8.637,10.931,14.114,19.569,14.114
		c2.146,0,4.328-0.339,6.474-1.051c10.781-3.578,16.642-15.261,13.064-26.042v-0.001
		C231.862,188.239,220.178,182.379,209.398,185.957z M219.228,215.573c-5.549,1.843-11.561-1.175-13.402-6.724
		c-1.841-5.548,1.175-11.56,6.723-13.401c1.104-0.366,2.227-0.54,3.331-0.54c4.445,0,8.596,2.819,10.071,7.263
		C227.792,207.72,224.775,213.731,219.228,215.573z"/>
	<path fill="#0062bd" d="M301.762,228.705c-3.587-10.784-15.271-16.644-26.049-13.059c-10.775,3.574-16.635,15.256-13.063,26.036
		c0.209,0.631,0.453,1.247,0.72,1.852h-20.762l35.889-71.55l-8.938-4.483l-38.138,76.033h-52.963v10H338.79v-10h-37.726
		C303.074,238.991,303.428,233.742,301.762,228.705z M272.143,238.541c-1.838-5.552,1.176-11.563,6.723-13.403
		c5.55-1.844,11.562,1.172,13.404,6.716c1.433,4.324-0.018,8.951-3.521,11.681h-13.082
		C274.035,242.259,272.8,240.528,272.143,238.541z"/>
	
		<rect x="267.141" y="272.994" transform="matrix(0.7072 0.707 -0.707 0.7072 311.3681 -96.4576)" fill="#0062bd" width="10" height="109.411"/>
	<path fill="#0062bd" d="M244.375,284.074c-11.36,0-20.602,9.242-20.602,20.602c0,11.36,9.242,20.604,20.602,20.604
		s20.602-9.243,20.602-20.604C264.977,293.316,255.735,284.074,244.375,284.074z M244.375,315.279
		c-5.846,0-10.602-4.757-10.602-10.604c0-5.846,4.756-10.602,10.602-10.602s10.601,4.756,10.601,10.602
		C254.977,310.522,250.221,315.279,244.375,315.279z"/>
	<path fill="#0062bd" d="M277.363,353.742c0,11.358,9.242,20.602,20.603,20.602c11.361,0,20.603-9.242,20.603-20.602
		c0-11.36-9.241-20.604-20.603-20.604C286.605,333.139,277.363,342.382,277.363,353.742z M308.566,353.742
		c0,5.846-4.756,10.602-10.602,10.602c-5.847,0-10.604-4.756-10.604-10.602c0-5.848,4.757-10.604,10.604-10.604
		C303.813,343.14,308.566,347.896,308.566,353.742z"/>
	<path fill="#0062bd" d="M70.064,253.534h44.323v-0.001c11.482,0,20.824,12.171,20.824,27.13h10c0-14.959,9.341-27.13,20.824-27.13
		v-10c-11.482,0-20.824-12.171-20.824-27.13h-10c0,14.959-9.342,27.13-20.824,27.13v0.001H60.064v45.847l-25.727-77.507
		l42.073-13.955l-3.148-9.491l-51.566,17.104l38.369,115.595v93.729H338.79v-10H70.064V253.534z M140.212,236.639
		c2.644,4.879,6.212,8.964,10.405,11.895c-4.193,2.932-7.761,7.016-10.405,11.896c-2.644-4.88-6.212-8.964-10.405-11.896
		C134,245.603,137.568,241.518,140.212,236.639z"/>
	<rect x="370.014" y="404.855" fill="#0062bd" width="26.943" height="10"/>
	<path fill="#0062bd" d="M485.305,297.021h5v-53.487H370.014v10h110.291v33.786c-20.571,2.477-36.564,20.038-36.564,41.265
		c0,21.234,15.993,38.801,36.564,41.277v34.994h-19.047v-0.003c-11.481,0-20.824-12.17-20.824-27.129h-10
		c0,14.959-9.342,27.129-20.824,27.129v10c11.482,0,20.824,12.173,20.824,27.132h10c0-14.947,9.325-27.108,20.796-27.129h29.075
		v-54.694h-5c-17.404,0-31.564-14.165-31.564-31.577C453.739,311.18,467.899,297.021,485.305,297.021z M435.434,421.748
		c-2.645-4.879-6.212-8.963-10.404-11.896c4.192-2.931,7.761-7.015,10.404-11.894c2.646,4.879,6.212,8.963,10.404,11.894
		C441.646,412.785,438.078,416.869,435.434,421.748z"/>
	<rect x="349.123" y="378.527" fill="#0062bd" width="10" height="11"/>
	<rect x="349.123" y="312.527" fill="#0062bd" width="10" height="11"/>
	<rect x="349.123" y="334.527" fill="#0062bd" width="10" height="11"/>
	<rect x="349.123" y="400.527" fill="#0062bd" width="10" height="11"/>
	<rect x="349.123" y="356.527" fill="#0062bd" width="10" height="11"/>
	<rect x="349.123" y="246.527" fill="#0062bd" width="10" height="11"/>
	<rect x="349.123" y="268.527" fill="#0062bd" width="10" height="11"/>
	<rect x="349.123" y="290.527" fill="#0062bd" width="10" height="11"/>
	<rect x="386.695" y="344.243" fill="#0062bd" width="10" height="19.896"/>
	<rect x="386.695" y="290.645" fill="#0062bd" width="10" height="43.6"/>
	<rect x="404.609" y="290.645" fill="#0062bd" width="10" height="73.496"/>
	<rect x="111.457" y="297.849" fill="#0062bd" width="88.908" height="10"/>
	<rect x="89.781" y="297.849" fill="#0062bd" width="11.675" height="10"/>
	<rect x="89.781" y="352.992" fill="#0062bd" width="77.409" height="10"/>
	<rect x="185.028" y="325.421" fill="#0062bd" width="15.337" height="10"/>
	<rect x="89.781" y="325.421" fill="#0062bd" width="87.348" height="10"/>
	
		<rect x="206.743" y="67.571" transform="matrix(-0.3149 -0.9491 0.9491 -0.3149 138.2106 395.2319)" fill="#0062bd" width="10" height="160.331"/>
	<path fill="#0062bd" d="M423.697,82.656l10.642,32.063c-8.394,3.941-15.183,10.538-19.405,18.956
		c-4.979,9.925-5.795,21.193-2.299,31.729c3.498,10.541,10.892,19.088,20.814,24.068c8.418,4.223,17.803,5.453,26.892,3.594
		l12.596,37.954l9.491-3.149l-15.651-47.164l-4.746,1.574c-8,2.656-16.558,2.035-24.096-1.747
		c-7.537-3.781-13.151-10.273-15.81-18.279c-2.654-8.001-2.035-16.558,1.746-24.095c3.781-7.537,10.27-13.15,18.27-15.806
		l4.746-1.575l-16.848-50.764l-114.168,37.89l3.148,9.491L423.697,82.656z"/>
	
		<rect x="305.392" y="136.364" transform="matrix(0.9491 -0.315 0.315 0.9491 -28.8842 104.9838)" fill="#0062bd" width="9.999" height="11"/>
	
		<rect x="332.605" y="220.368" transform="matrix(0.315 0.9491 -0.9491 0.315 445.5068 -166.5128)" fill="#0062bd" width="11" height="10"/>
	
		<rect x="297.964" y="115.975" transform="matrix(-0.315 -0.9491 0.9491 -0.315 284.2443 447.097)" fill="#0062bd" width="10.999" height="9.999"/>
	
		<rect x="325.683" y="199.495" transform="matrix(-0.315 -0.9491 0.9491 -0.315 241.4267 583.2352)" fill="#0062bd" width="10.999" height="9.999"/>
	
		<rect x="311.839" y="157.743" transform="matrix(0.3149 0.9491 -0.9491 0.3149 371.8788 -189.6986)" fill="#0062bd" width="11.001" height="9.999"/>
	
		<rect x="318.763" y="178.618" transform="matrix(-0.315 -0.9491 0.9491 -0.315 252.1266 549.2098)" fill="#0062bd" width="11" height="9.999"/>
	
		<rect x="365.436" y="196.437" transform="matrix(-0.9491 0.3149 -0.3149 -0.9491 787.0186 285.6166)" fill="#0062bd" width="10.001" height="19.897"/>
	
		<rect x="352.288" y="144.964" transform="matrix(-0.9491 0.3149 -0.3149 -0.9491 748.9137 212.5165)" fill="#0062bd" width="10" height="43.598"/>
	
		<rect x="374.876" y="138.277" transform="matrix(0.9491 -0.3149 0.3149 0.9491 -35.7907 128.5442)" fill="#0062bd" width="10" height="73.494"/>
</g>
</svg>
