<?xml version="1.0" encoding="utf-8"?>
<!-- Generator: Adobe Illustrator 16.0.2, SVG Export Plug-In . SVG Version: 6.00 Build 0)  -->
<!DOCTYPE svg PUBLIC "-//W3C//DTD SVG 1.0//EN" "http://www.w3.org/TR/2001/REC-SVG-20010904/DTD/svg10.dtd">
<svg version="1.0" id="Layer_1" xmlns="http://www.w3.org/2000/svg" xmlns:xlink="http://www.w3.org/1999/xlink" x="0px" y="0px"
	 width="206.25px" height="56.25px" viewBox="0 0 206.25 56.25" enable-background="new 0 0 206.25 56.25" xml:space="preserve">
<g>
	<path fill="#FFFFFF" d="M32.99,30.33h-5.465c0.281-3.477,0.429-6.861,0.429-10.146c0-2.465-0.313-4.072-0.954-4.833
		c-0.626-0.75-1.637-1.128-3.025-1.128c-1.113,0-2.29,0.404-3.532,1.213c-0.052,1.724-0.078,3.262-0.078,4.624
		c0,2.3,0.039,5.718,0.124,10.27h-5.531c0.3-3.768,0.458-7.433,0.458-10.996c0-1.839-0.263-3.15-0.777-3.934
		c-0.514-0.787-1.583-1.177-3.206-1.177c-1.496,0-2.745,0.502-3.737,1.504c0.072,5.446,0.103,10.316,0.103,14.603h-5.55
		c0.251-4.287,0.375-7.671,0.375-10.146c0-3.217-0.334-6.323-1.01-9.308l5.28-0.567l0.354,2.184h0.327
		c1.789-1.629,3.799-2.439,6.046-2.439c2.804,0,4.778,0.81,5.915,2.439h0.336c2.031-1.629,4.044-2.439,6.037-2.439
		c2.341,0,4.106,0.507,5.297,1.515c1.191,1.01,1.785,2.848,1.785,5.503c0,0.257-0.021,0.753-0.047,1.497
		c-0.022,0.733-0.036,1.228-0.036,1.492C32.908,22.359,32.931,25.778,32.99,30.33z"/>
	<path fill="#FFFFFF" d="M57.454,20.082c0,3.464-1.069,6.171-3.205,8.128c-2.126,1.949-4.636,2.925-7.522,2.925
		c-2.753,0-5.115-0.888-7.075-2.673c-1.969-1.782-2.954-4.286-2.954-7.513c0-3.48,1.079-6.207,3.217-8.176
		c2.148-1.959,4.663-2.943,7.549-2.943c2.74,0,5.086,0.897,7.047,2.691C56.472,14.314,57.454,16.833,57.454,20.082z M52.064,20.698
		c0-1.995-0.463-3.671-1.404-5.018c-0.931-1.359-2.146-2.039-3.643-2.039c-1.462,0-2.647,0.64-3.56,1.898
		c-0.913,1.267-1.375,2.85-1.375,4.749c0,1.99,0.471,3.667,1.403,5.017c0.937,1.356,2.154,2.035,3.652,2.035
		c1.46,0,2.638-0.63,3.561-1.898C51.611,24.176,52.064,22.596,52.064,20.698z"/>
	<path fill="#FFFFFF" d="M80.88,19.688c0,2.985-0.849,5.602-2.55,7.858c-1.715,2.26-4.054,3.382-7.039,3.382
		c-2.197,0-3.755-0.469-4.66-1.4h-0.272l-0.411,0.802h-4.849c0.18-4.829,0.27-9.934,0.27-15.323c0-5.074-0.224-9.634-0.681-13.68
		L66.609,1c-0.14,3.204-0.206,6.83-0.206,10.868h0.246c1.388-1.221,3.267-1.833,5.634-1.833c2.635,0,4.728,0.946,6.277,2.858
		C80.103,14.799,80.88,17.065,80.88,19.688z M75.395,20.221c0-1.715-0.433-3.206-1.309-4.465c-0.874-1.252-2.075-1.89-3.597-1.89
		c-1.897,0-3.285,0.563-4.167,1.674c0,4.708,0.104,8.244,0.309,10.623c0.869,0.677,1.987,1.012,3.363,1.012
		c1.825,0,3.186-0.678,4.074-2.029C74.954,23.789,75.395,22.153,75.395,20.221z"/>
	<path fill="#FFFFFF" d="M90.457,30.33h-5.55c0.192-2.848,0.288-6.107,0.288-9.801c0-3.65-0.239-6.86-0.699-9.606l5.934-0.596
		c-0.173,2.667-0.263,6.069-0.263,10.203C90.167,24.068,90.265,27.335,90.457,30.33z M91.401,4.504c0,0.941-0.319,1.759-0.96,2.457
		c-0.638,0.702-1.528,1.057-2.665,1.057c-0.967,0-1.722-0.311-2.262-0.915c-0.547-0.604-0.812-1.332-0.812-2.188
		c0-0.93,0.316-1.74,0.955-2.429c0.642-0.689,1.538-1.029,2.688-1.029c0.979,0,1.735,0.298,2.262,0.897
		C91.134,2.954,91.401,3.667,91.401,4.504z"/>
	<path fill="#FFFFFF" d="M101.277,30.33h-5.625c0.206-4.712,0.308-9.824,0.308-15.323c0-5.365-0.21-9.921-0.644-13.68L101.277,1
		c-0.206,3.889-0.309,8.56-0.309,14.007C100.968,20.529,101.072,25.644,101.277,30.33z"/>
	<path fill="#FFFFFF" d="M111.756,30.33h-5.625c0.206-4.712,0.308-9.824,0.308-15.323c0-5.365-0.21-9.921-0.644-13.68L111.756,1
		c-0.206,3.889-0.31,8.56-0.31,14.007C111.446,20.529,111.55,25.644,111.756,30.33z"/>
	<path fill="#FFFFFF" d="M133.575,30.312l-4.87,0.159c-0.22-0.57-0.326-1.1-0.326-1.56h-0.273c-1.512,1.292-3.548,1.933-6.121,1.933
		c-1.724,0-3.148-0.478-4.28-1.43c-1.138-0.958-1.698-2.228-1.698-3.813c0-2.089,0.875-3.798,2.643-5.13
		c1.771-1.339,4.866-2.046,9.296-2.128c0.026-0.245,0.04-0.477,0.04-0.702c0-1.486-0.353-2.458-1.074-2.933
		c-0.715-0.478-2.026-0.712-3.932-0.712c-2.08,0-4.114,0.271-6.086,0.822l0.451-3.794c1.871-0.65,4.505-0.972,7.922-0.972
		c2.488,0,4.408,0.523,5.765,1.57c1.35,1.042,2.029,2.874,2.029,5.487c0,0.578-0.023,1.624-0.075,3.155
		c-0.044,1.525-0.067,2.542-0.067,3.046C132.918,26.163,133.137,28.5,133.575,30.312z M128.066,26.024
		c-0.081-1.861-0.121-3.463-0.121-4.812c-4.686,0-7.035,1.188-7.035,3.568c0,1.642,1.028,2.457,3.092,2.457
		C125.623,27.237,126.982,26.834,128.066,26.024z"/>
	<path fill="#FFFFFF" d="M157.258,19.688c0,2.985-0.855,5.602-2.56,7.858c-1.701,2.26-4.051,3.382-7.035,3.382
		c-2.197,0-3.754-0.469-4.663-1.4h-0.269l-0.412,0.802h-4.841c0.173-4.829,0.263-9.934,0.263-15.323
		c0-5.074-0.224-9.634-0.681-13.68L142.982,1c-0.134,3.204-0.205,6.83-0.205,10.868h0.245c1.387-1.221,3.266-1.833,5.634-1.833
		c2.642,0,4.734,0.946,6.276,2.858C156.484,14.799,157.258,17.065,157.258,19.688z M151.767,20.221c0-1.715-0.434-3.206-1.309-4.465
		c-0.874-1.252-2.074-1.89-3.597-1.89c-1.896,0-3.288,0.563-4.169,1.674c0,4.708,0.103,8.244,0.309,10.623
		c0.868,0.677,1.986,1.012,3.366,1.012c1.824,0,3.183-0.678,4.073-2.029C151.326,23.789,151.767,22.153,151.767,20.221z"/>
	<path fill="#FFFFFF" d="M184.029,10.737l-1.199,4.82c-1.021-0.411-2.051-0.613-3.091-0.613c-2.029,0-3.358,0.903-4.007,2.727
		c0,5.485,0.045,9.702,0.13,12.659h-5.496c0.238-4.141,0.354-7.522,0.354-10.146c0-3.275-0.347-6.373-1.028-9.308l5.251-0.567
		c0.242,1.508,0.354,2.395,0.354,2.653h0.33c1.267-1.937,2.951-2.908,5.054-2.908C181.674,10.053,182.785,10.28,184.029,10.737z"/>
	<path fill="#FFFFFF" d="M205.125,30.312l-4.829,0.159c-0.219-0.737-0.328-1.329-0.328-1.766h-0.326
		c-1.803,1.486-3.906,2.223-6.318,2.223c-2.262,0-3.977-0.593-5.121-1.783c-1.152-1.19-1.726-3.567-1.726-7.13
		c0-0.425,0.016-1.021,0.037-1.794c0.018-0.764,0.026-1.441,0.026-2.018c0-1.522-0.127-3.961-0.391-7.299l5.755-0.206
		c-0.219,2.636-0.326,5.137-0.326,7.505c0,3.37,0.244,5.639,0.749,6.801c0.501,1.172,1.488,1.759,2.961,1.759
		c1.606,0,2.993-0.385,4.166-1.16c0-7.225-0.085-12.141-0.252-14.727l5.568-0.178c-0.133,2.599-0.205,5.97-0.205,10.104
		C204.565,23.868,204.753,27.04,205.125,30.312z"/>
	<path fill="#A3D133" d="M169.049,24.474c0,1.603-0.551,3.012-1.667,4.236c-1.107,1.219-2.637,1.826-4.593,1.826
		c-1.642,0-2.928-0.523-3.857-1.58c-0.922-1.053-1.375-2.314-1.375-3.791c0-1.599,0.548-2.991,1.657-4.167
		c1.105-1.177,2.656-1.766,4.633-1.766c1.671,0,2.946,0.519,3.855,1.539C168.601,21.79,169.049,23.027,169.049,24.474z"/>
</g>
<g>
	<path fill="#FFFFFF" d="M14.713,50.915H13c0-1.354-0.094-3.313-0.282-5.875c-0.188-2.563-0.288-4.099-0.3-4.609h-0.091
		c-0.607,1.974-1.377,4.116-2.309,6.427c-0.932,2.311-1.398,3.664-1.398,4.058H7.39c0-0.425-0.434-1.802-1.303-4.131
		c-0.868-2.329-1.418-3.888-1.649-4.678c-0.23-0.79-0.388-1.348-0.473-1.676H3.874c-0.019,0.833-0.138,2.511-0.36,5.038
		c-0.222,2.527-0.333,4.342-0.333,5.447H1.614c0-0.061,0.207-1.732,0.62-5.015c0.413-3.282,0.62-5.564,0.62-6.846h2.396
		c0,0.668,0.486,2.338,1.457,5.01c0.972,2.672,1.458,4.291,1.458,4.855h0.091c0-0.565,0.547-2.188,1.64-4.869
		c1.092-2.682,1.639-4.347,1.639-4.997h2.341c0,1.282,0.139,3.553,0.418,6.814C14.574,49.129,14.713,50.812,14.713,50.915z"/>
	<path fill="#FFFFFF" d="M25.745,46.324c0,1.555-0.447,2.768-1.339,3.639s-1.943,1.307-3.152,1.307c-1.129,0-2.1-0.386-2.91-1.157
		c-0.811-0.771-1.216-1.858-1.216-3.261c0-1.567,0.448-2.791,1.344-3.671c0.896-0.88,1.948-1.32,3.156-1.32
		c1.129,0,2.098,0.39,2.906,1.17C25.341,43.811,25.745,44.909,25.745,46.324z M24.168,46.642c0-0.947-0.239-1.79-0.715-2.527
		c-0.477-0.738-1.156-1.106-2.036-1.106c-0.875,0-1.547,0.349-2.018,1.047s-0.706,1.509-0.706,2.432
		c0,0.954,0.238,1.798,0.715,2.533c0.477,0.735,1.158,1.102,2.045,1.102c0.875,0,1.545-0.351,2.013-1.052
		C23.935,48.369,24.168,47.559,24.168,46.642z"/>
	<path fill="#FFFFFF" d="M36.356,46.515c0,1.53-0.456,2.706-1.366,3.526c-0.911,0.819-1.986,1.229-3.225,1.229
		c-1.64,0-2.775-0.629-3.407-1.886c-0.486-0.953-0.729-2.462-0.729-4.527c0-2.277,0.501-3.935,1.503-4.973
		c0.807-0.838,2.046-1.345,3.716-1.521c0.941-0.104,1.977-0.234,3.106-0.392l-0.082,1.458c-0.516,0.03-1.585,0.133-3.207,0.31
		c-1.238,0.164-2.101,0.464-2.586,0.902c-0.662,0.589-0.993,1.618-0.993,3.088h0.091c0.753-0.868,1.773-1.302,3.061-1.302
		c1.166,0,2.144,0.334,2.933,1.001C35.961,44.095,36.356,45.125,36.356,46.515z M34.78,46.834c0-0.93-0.235-1.705-0.706-2.328
		c-0.471-0.623-1.153-0.934-2.045-0.934c-1.257,0-2.229,0.44-2.915,1.321c0.012,1.846,0.246,3.179,0.701,3.999
		c0.456,0.82,1.175,1.229,2.159,1.229c0.856,0,1.538-0.325,2.045-0.975C34.527,48.498,34.78,47.727,34.78,46.834z"/>
	<path fill="#FFFFFF" d="M45.721,50.915H44.09c0.091-1.039,0.137-2.426,0.137-4.163c0-0.492,0.03-1.23,0.091-2.213h-0.091
		c-0.127,0.418-0.956,1.521-2.487,3.306c-1.452,1.707-2.177,2.73-2.177,3.07h-1.294c0.085-1.215,0.127-2.602,0.127-4.163
		c0-1.755-0.106-3.228-0.318-4.418l1.803-0.246c-0.079,1.123-0.118,2.553-0.118,4.29c0,0.613-0.019,1.391-0.055,2.332h0.091
		c0.14-0.382,0.966-1.481,2.478-3.297c1.421-1.707,2.131-2.732,2.131-3.079l1.293-0.246c-0.073,1.269-0.109,2.823-0.109,4.664
		C45.593,48.209,45.635,49.597,45.721,50.915z"/>
	<path fill="#FFFFFF" d="M55.039,50.915h-1.584c0.084-1.093,0.127-2.42,0.127-3.98c0-1.233-0.024-2.411-0.073-3.535h-1.813
		c-0.176,0.681-0.374,1.344-0.592,1.991c-0.219,0.647-0.453,1.254-0.702,1.822s-0.51,1.088-0.784,1.562
		c-0.273,0.474-0.549,0.881-0.829,1.221s-0.562,0.604-0.847,0.792s-0.564,0.282-0.838,0.282l-0.091-1.457
		c0.152-0.013,0.33-0.111,0.533-0.296c0.204-0.185,0.419-0.443,0.647-0.774c0.227-0.331,0.461-0.725,0.701-1.18
		c0.239-0.456,0.475-0.954,0.706-1.494c0.23-0.54,0.45-1.116,0.66-1.726c0.209-0.61,0.393-1.237,0.551-1.881H53.8l1.229-0.172
		c-0.079,1.269-0.119,2.823-0.119,4.664C54.911,48.209,54.954,49.597,55.039,50.915z"/>
	<path fill="#FFFFFF" d="M64.394,48.018c0,0.941-0.386,1.669-1.157,2.182c-0.771,0.513-1.639,0.77-2.605,0.77
		c-0.492,0-1.539-0.019-3.142-0.055c0.06-1.215,0.09-2.602,0.09-4.163c0-1.755-0.106-3.228-0.318-4.418l1.767-0.246
		c-0.055,0.765-0.082,1.916-0.082,3.452c0.638-0.115,1.154-0.173,1.549-0.173C63.095,45.367,64.394,46.251,64.394,48.018z
		 M62.991,48.172c0-1.135-0.832-1.703-2.496-1.703c-0.316,0-0.832,0.045-1.549,0.136c0,1.081,0.012,2.129,0.036,3.143
		c0.613,0.073,1.172,0.11,1.676,0.11C62.214,49.858,62.991,49.296,62.991,48.172z"/>
	<path fill="#FFFFFF" d="M73.467,50.915h-1.594c0.079-1.16,0.121-2.496,0.127-4.008h-4.364c0,1.36,0.046,2.696,0.137,4.008H66.18
		c0.091-1.215,0.137-2.602,0.137-4.163c0-1.755-0.11-3.228-0.328-4.418l1.767-0.246c-0.03,0.437-0.07,1.655-0.119,3.652h4.345
		c-0.036-1.36-0.136-2.496-0.301-3.407l1.768-0.246c-0.079,1.269-0.119,2.823-0.119,4.664C73.33,48.209,73.376,49.597,73.467,50.915
		z"/>
	<path fill="#FFFFFF" d="M82.722,50.915l-1.43,0.055c-0.073-0.297-0.11-0.58-0.11-0.847h-0.091c-0.747,0.68-1.765,1.021-3.052,1.021
		c-0.699,0-1.299-0.205-1.804-0.615c-0.504-0.41-0.756-0.994-0.756-1.753c0-0.935,0.395-1.687,1.184-2.255
		c0.79-0.567,2.256-0.866,4.4-0.897c0.018-0.146,0.027-0.313,0.027-0.5c0-0.748-0.199-1.245-0.597-1.494
		c-0.397-0.249-1-0.374-1.809-0.374c-0.953,0-1.891,0.119-2.814,0.355l0.155-1.257c0.911-0.261,1.959-0.392,3.143-0.392
		c1.082,0,1.916,0.224,2.505,0.67c0.589,0.446,0.883,1.207,0.883,2.282c0,0.286-0.013,0.803-0.041,1.553s-0.042,1.25-0.042,1.499
		C82.476,49.069,82.558,50.052,82.722,50.915z M81.109,49.147c-0.03-0.923-0.045-1.752-0.045-2.487c-1.142,0-2.01,0.085-2.605,0.255
		c-0.996,0.304-1.494,0.884-1.494,1.74c0,0.826,0.583,1.239,1.749,1.239C79.716,49.895,80.514,49.646,81.109,49.147z"/>
	<path fill="#FFFFFF" d="M91.985,50.915h-1.594c0.049-1.008,0.073-2.213,0.073-3.616c-0.51-0.049-1.056-0.073-1.639-0.073
		c-0.917,0-1.53,0.197-1.84,0.592c-0.31,0.395-0.72,1.428-1.23,3.097h-1.521c0.492-1.481,0.904-2.526,1.238-3.133
		s0.71-0.95,1.13-1.029v-0.091c-1.239-0.297-1.858-0.959-1.858-1.986c0-1.688,1.078-2.532,3.234-2.532c0.85,0,1.81,0.04,2.878,0.118
		l1.129-0.191c-0.085,1.293-0.127,2.848-0.127,4.664C91.858,48.689,91.9,50.083,91.985,50.915z M90.464,46.15
		c0-1.178-0.024-2.086-0.073-2.724c-0.723-0.079-1.591-0.119-2.605-0.119c-1.05,0-1.576,0.477-1.576,1.431
		c0,0.965,0.875,1.448,2.624,1.448C89.326,46.187,89.869,46.175,90.464,46.15z"/>
	<path fill="#FFFFFF" d="M106.979,39.054c-0.073,1.938-0.109,3.79-0.109,5.557c0,2.223,0.036,4.323,0.109,6.303h-1.676
		c0.067-1.7,0.101-3.695,0.101-5.985c0-1.815-0.012-3.391-0.036-4.728h-2.25c-0.049,0.286-0.134,0.657-0.255,1.116
		c-0.122,0.458-0.272,0.966-0.451,1.521s-0.383,1.142-0.61,1.758c-0.228,0.616-0.476,1.225-0.742,1.826
		c-0.268,0.601-0.548,1.177-0.843,1.726c-0.294,0.55-0.597,1.037-0.906,1.462c-0.31,0.425-0.624,0.768-0.943,1.029
		c-0.319,0.262-0.636,0.404-0.952,0.428l-0.091-1.639c0.164-0.037,0.351-0.169,0.56-0.396c0.209-0.228,0.433-0.523,0.669-0.888
		c0.237-0.364,0.48-0.785,0.729-1.262c0.249-0.477,0.493-0.984,0.733-1.521c0.239-0.538,0.472-1.092,0.696-1.663
		c0.225-0.57,0.428-1.133,0.61-1.685c0.182-0.553,0.338-1.083,0.47-1.59c0.13-0.506,0.226-0.964,0.287-1.371H106.979z"/>
	<path fill="#FFFFFF" d="M116.735,50.915l-1.43,0.055c-0.073-0.297-0.109-0.58-0.109-0.847h-0.091
		c-0.748,0.68-1.765,1.021-3.052,1.021c-0.699,0-1.299-0.205-1.804-0.615c-0.504-0.41-0.756-0.994-0.756-1.753
		c0-0.935,0.395-1.687,1.185-2.255c0.79-0.567,2.256-0.866,4.4-0.897c0.018-0.146,0.027-0.313,0.027-0.5
		c0-0.748-0.199-1.245-0.597-1.494c-0.397-0.249-1-0.374-1.808-0.374c-0.953,0-1.892,0.119-2.814,0.355l0.155-1.257
		c0.911-0.261,1.958-0.392,3.143-0.392c1.081,0,1.916,0.224,2.505,0.67c0.589,0.446,0.883,1.207,0.883,2.282
		c0,0.286-0.014,0.803-0.041,1.553c-0.027,0.75-0.042,1.25-0.042,1.499C116.489,49.069,116.571,50.052,116.735,50.915z
		 M115.122,49.147c-0.03-0.923-0.045-1.752-0.045-2.487c-1.142,0-2.01,0.085-2.605,0.255c-0.996,0.304-1.494,0.884-1.494,1.74
		c0,0.826,0.583,1.239,1.749,1.239C113.729,49.895,114.527,49.646,115.122,49.147z"/>
	<path fill="#FFFFFF" d="M127.556,46.515c0,1.53-0.456,2.706-1.366,3.526c-0.911,0.819-1.986,1.229-3.225,1.229
		c-1.64,0-2.775-0.629-3.407-1.886c-0.486-0.953-0.729-2.462-0.729-4.527c0-2.277,0.5-3.935,1.503-4.973
		c0.807-0.838,2.046-1.345,3.716-1.521c0.941-0.104,1.977-0.234,3.106-0.392l-0.082,1.458c-0.516,0.03-1.585,0.133-3.207,0.31
		c-1.238,0.164-2.101,0.464-2.586,0.902c-0.662,0.589-0.993,1.618-0.993,3.088h0.091c0.753-0.868,1.773-1.302,3.061-1.302
		c1.166,0,2.144,0.334,2.933,1.001C127.161,44.095,127.556,45.125,127.556,46.515z M125.98,46.834c0-0.93-0.235-1.705-0.706-2.328
		s-1.152-0.934-2.045-0.934c-1.257,0-2.229,0.44-2.915,1.321c0.012,1.846,0.246,3.179,0.701,3.999
		c0.456,0.82,1.176,1.229,2.159,1.229c0.856,0,1.538-0.325,2.045-0.975C125.727,48.498,125.98,47.727,125.98,46.834z"/>
	<path fill="#FFFFFF" d="M137.786,46.324c0,1.555-0.446,2.768-1.339,3.639c-0.893,0.871-1.943,1.307-3.152,1.307
		c-1.129,0-2.1-0.386-2.911-1.157c-0.811-0.771-1.216-1.858-1.216-3.261c0-1.567,0.448-2.791,1.344-3.671
		c0.896-0.88,1.948-1.32,3.156-1.32c1.129,0,2.098,0.39,2.906,1.17C137.382,43.811,137.786,44.909,137.786,46.324z M136.21,46.642
		c0-0.947-0.239-1.79-0.715-2.527s-1.155-1.106-2.036-1.106c-0.875,0-1.547,0.349-2.018,1.047c-0.471,0.698-0.706,1.509-0.706,2.432
		c0,0.954,0.238,1.798,0.715,2.533c0.477,0.735,1.158,1.102,2.045,1.102c0.875,0,1.546-0.351,2.013-1.052
		C135.976,48.369,136.21,47.559,136.21,46.642z"/>
	<path fill="#FFFFFF" d="M148.152,46.232c0,1.312-0.375,2.461-1.125,3.448c-0.75,0.986-1.792,1.48-3.128,1.48
		c-1.117,0-1.852-0.2-2.205-0.601h-0.091c0,1.688,0.019,3.194,0.055,4.518h-1.713c0.14-1.615,0.21-3.61,0.21-5.984
		c0-2.927-0.152-5.192-0.456-6.795l1.603-0.228l0.137,0.901h0.091c0.588-0.686,1.542-1.029,2.86-1.029
		c1.16,0,2.077,0.423,2.751,1.271C147.814,44.06,148.152,45.066,148.152,46.232z M146.53,46.451c0-0.898-0.237-1.668-0.71-2.309
		c-0.474-0.641-1.139-0.961-1.995-0.961c-1.093,0-1.877,0.332-2.351,0.993c0.097,2.04,0.146,3.792,0.146,5.256
		c0.492,0.413,1.133,0.619,1.922,0.619c1.001,0,1.75-0.353,2.245-1.057C146.283,48.288,146.53,47.441,146.53,46.451z"/>
	<path fill="#FFFFFF" d="M157.097,50.915l-1.43,0.055c-0.073-0.297-0.11-0.58-0.11-0.847h-0.091
		c-0.747,0.68-1.764,1.021-3.051,1.021c-0.699,0-1.3-0.205-1.804-0.615c-0.504-0.41-0.756-0.994-0.756-1.753
		c0-0.935,0.395-1.687,1.185-2.255c0.789-0.567,2.255-0.866,4.399-0.897c0.018-0.146,0.027-0.313,0.027-0.5
		c0-0.748-0.199-1.245-0.597-1.494c-0.397-0.249-1-0.374-1.808-0.374c-0.953,0-1.892,0.119-2.814,0.355l0.155-1.257
		c0.911-0.261,1.958-0.392,3.142-0.392c1.082,0,1.916,0.224,2.505,0.67s0.883,1.207,0.883,2.282c0,0.286-0.013,0.803-0.041,1.553
		s-0.041,1.25-0.041,1.499C156.851,49.069,156.933,50.052,157.097,50.915z M155.484,49.147c-0.03-0.923-0.045-1.752-0.045-2.487
		c-1.142,0-2.01,0.085-2.605,0.255c-0.996,0.304-1.494,0.884-1.494,1.74c0,0.826,0.583,1.239,1.749,1.239
		C154.091,49.895,154.889,49.646,155.484,49.147z"/>
	<path fill="#FFFFFF" d="M166.023,42.261l-0.054,1.358c-0.99-0.098-1.962-0.146-2.916-0.146c-0.024,0.844-0.036,1.937-0.036,3.279
		c0,1.458,0.046,2.845,0.137,4.163h-1.658c0.085-1.215,0.128-2.602,0.128-4.163c0-1.306-0.024-2.398-0.073-3.279
		c-0.947,0-1.928,0.048-2.942,0.146l0.055-1.358H166.023z"/>
	<path fill="#FFFFFF" d="M175.944,46.324c0,1.555-0.447,2.768-1.339,3.639s-1.943,1.307-3.152,1.307c-1.129,0-2.1-0.386-2.91-1.157
		c-0.811-0.771-1.216-1.858-1.216-3.261c0-1.567,0.448-2.791,1.344-3.671c0.896-0.88,1.948-1.32,3.156-1.32
		c1.129,0,2.098,0.39,2.906,1.17C175.54,43.811,175.944,44.909,175.944,46.324z M174.368,46.642c0-0.947-0.239-1.79-0.715-2.527
		c-0.477-0.738-1.156-1.106-2.036-1.106c-0.875,0-1.547,0.349-2.018,1.047s-0.706,1.509-0.706,2.432
		c0,0.954,0.238,1.798,0.715,2.533c0.477,0.735,1.158,1.102,2.044,1.102c0.875,0,1.546-0.351,2.013-1.052
		C174.134,48.369,174.368,47.559,174.368,46.642z"/>
	<path fill="#FFFFFF" d="M186.31,46.232c0,1.312-0.375,2.461-1.125,3.448c-0.75,0.986-1.793,1.48-3.129,1.48
		c-1.117,0-1.852-0.2-2.205-0.601h-0.091c0,1.688,0.019,3.194,0.055,4.518h-1.713c0.14-1.615,0.21-3.61,0.21-5.984
		c0-2.927-0.152-5.192-0.456-6.795l1.604-0.228l0.136,0.901h0.091c0.588-0.686,1.542-1.029,2.86-1.029
		c1.159,0,2.076,0.423,2.751,1.271C185.973,44.06,186.31,45.066,186.31,46.232z M184.688,46.451c0-0.898-0.237-1.668-0.711-2.309
		c-0.474-0.641-1.139-0.961-1.995-0.961c-1.093,0-1.876,0.332-2.351,0.993c0.097,2.04,0.146,3.792,0.146,5.256
		c0.492,0.413,1.133,0.619,1.922,0.619c1.002,0,1.75-0.353,2.245-1.057C184.44,48.288,184.688,47.441,184.688,46.451z"/>
	<path fill="#FFFFFF" d="M195.865,50.915h-1.63c0.091-1.039,0.136-2.426,0.136-4.163c0-0.492,0.03-1.23,0.091-2.213h-0.091
		c-0.127,0.418-0.956,1.521-2.487,3.306c-1.452,1.707-2.177,2.73-2.177,3.07h-1.294c0.085-1.215,0.127-2.602,0.127-4.163
		c0-1.755-0.106-3.228-0.318-4.418l1.803-0.246c-0.079,1.123-0.118,2.553-0.118,4.29c0,0.613-0.018,1.391-0.055,2.332h0.091
		c0.14-0.382,0.966-1.481,2.478-3.297c1.421-1.707,2.131-2.732,2.131-3.079l1.293-0.246c-0.073,1.269-0.109,2.823-0.109,4.664
		C195.738,48.209,195.78,49.597,195.865,50.915z"/>
	<path fill="#FFFFFF" d="M205.229,50.915h-1.594c0.049-1.008,0.073-2.213,0.073-3.616c-0.51-0.049-1.056-0.073-1.639-0.073
		c-0.917,0-1.53,0.197-1.84,0.592c-0.31,0.395-0.72,1.428-1.23,3.097h-1.521c0.492-1.481,0.904-2.526,1.238-3.133
		s0.71-0.95,1.13-1.029v-0.091c-1.239-0.297-1.858-0.959-1.858-1.986c0-1.688,1.078-2.532,3.234-2.532c0.85,0,1.81,0.04,2.878,0.118
		l1.129-0.191c-0.085,1.293-0.127,2.848-0.127,4.664C205.102,48.689,205.144,50.083,205.229,50.915z M203.708,46.15
		c0-1.178-0.024-2.086-0.073-2.724c-0.723-0.079-1.591-0.119-2.605-0.119c-1.051,0-1.576,0.477-1.576,1.431
		c0,0.965,0.875,1.448,2.624,1.448C202.569,46.187,203.113,46.175,203.708,46.15z"/>
</g>
</svg>
