<?xml version="1.0" encoding="utf-8"?>
<!-- Generator: Adobe Illustrator 16.0.2, SVG Export Plug-In . SVG Version: 6.00 Build 0)  -->
<!DOCTYPE svg PUBLIC "-//W3C//DTD SVG 1.0//EN" "http://www.w3.org/TR/2001/REC-SVG-20010904/DTD/svg10.dtd">
<svg version="1.0" id="Layer_1" xmlns="http://www.w3.org/2000/svg" xmlns:xlink="http://www.w3.org/1999/xlink" x="0px" y="0px"
	 width="206.222px" height="31.5px" viewBox="0 0 206.222 31.5" enable-background="new 0 0 206.222 31.5" xml:space="preserve">
<g>
	<path fill="#FFFFFF" d="M32.99,30.33h-5.465c0.281-3.477,0.429-6.861,0.429-10.146c0-2.465-0.313-4.072-0.954-4.833
		c-0.626-0.75-1.637-1.128-3.025-1.128c-1.113,0-2.29,0.404-3.532,1.213c-0.052,1.724-0.078,3.262-0.078,4.624
		c0,2.3,0.039,5.718,0.124,10.27h-5.531c0.3-3.768,0.458-7.433,0.458-10.996c0-1.839-0.263-3.15-0.777-3.934
		c-0.514-0.787-1.583-1.177-3.206-1.177c-1.496,0-2.745,0.502-3.737,1.504c0.072,5.446,0.103,10.316,0.103,14.603h-5.55
		c0.251-4.287,0.375-7.671,0.375-10.146c0-3.217-0.334-6.323-1.01-9.308l5.28-0.567l0.354,2.184h0.327
		c1.789-1.629,3.799-2.439,6.046-2.439c2.804,0,4.778,0.81,5.915,2.439h0.336c2.031-1.629,4.044-2.439,6.037-2.439
		c2.341,0,4.106,0.507,5.297,1.515c1.191,1.01,1.785,2.848,1.785,5.503c0,0.257-0.021,0.753-0.047,1.497
		c-0.022,0.733-0.036,1.228-0.036,1.492C32.908,22.359,32.931,25.778,32.99,30.33z"/>
	<path fill="#FFFFFF" d="M57.454,20.082c0,3.464-1.069,6.171-3.205,8.128c-2.126,1.949-4.636,2.925-7.522,2.925
		c-2.753,0-5.115-0.888-7.075-2.673c-1.969-1.782-2.954-4.286-2.954-7.513c0-3.48,1.079-6.207,3.217-8.176
		c2.148-1.959,4.663-2.943,7.549-2.943c2.74,0,5.086,0.897,7.047,2.691C56.472,14.314,57.454,16.833,57.454,20.082z M52.064,20.698
		c0-1.995-0.463-3.671-1.404-5.018c-0.931-1.359-2.146-2.039-3.643-2.039c-1.462,0-2.647,0.64-3.56,1.898
		c-0.913,1.267-1.375,2.85-1.375,4.749c0,1.99,0.471,3.667,1.403,5.017c0.937,1.356,2.154,2.035,3.652,2.035
		c1.46,0,2.638-0.63,3.561-1.898C51.611,24.176,52.064,22.596,52.064,20.698z"/>
	<path fill="#FFFFFF" d="M80.88,19.688c0,2.985-0.849,5.602-2.55,7.858c-1.715,2.26-4.054,3.382-7.039,3.382
		c-2.197,0-3.755-0.469-4.66-1.4h-0.272l-0.411,0.802h-4.849c0.18-4.829,0.27-9.934,0.27-15.323c0-5.074-0.224-9.634-0.681-13.68
		L66.609,1c-0.14,3.204-0.206,6.83-0.206,10.868h0.246c1.388-1.221,3.267-1.833,5.634-1.833c2.635,0,4.728,0.946,6.277,2.858
		C80.103,14.799,80.88,17.065,80.88,19.688z M75.395,20.221c0-1.715-0.433-3.206-1.309-4.465c-0.874-1.252-2.075-1.89-3.597-1.89
		c-1.897,0-3.285,0.563-4.167,1.674c0,4.708,0.104,8.244,0.309,10.623c0.869,0.677,1.987,1.012,3.363,1.012
		c1.825,0,3.186-0.678,4.074-2.029C74.954,23.789,75.395,22.153,75.395,20.221z"/>
	<path fill="#FFFFFF" d="M90.457,30.33h-5.55c0.192-2.848,0.288-6.107,0.288-9.801c0-3.65-0.239-6.86-0.699-9.606l5.934-0.596
		c-0.173,2.667-0.263,6.069-0.263,10.203C90.167,24.068,90.265,27.335,90.457,30.33z M91.401,4.504c0,0.941-0.319,1.759-0.96,2.457
		c-0.638,0.702-1.528,1.057-2.665,1.057c-0.967,0-1.722-0.311-2.262-0.915c-0.547-0.604-0.812-1.332-0.812-2.188
		c0-0.93,0.316-1.74,0.955-2.429c0.642-0.689,1.538-1.029,2.688-1.029c0.979,0,1.735,0.298,2.262,0.897
		C91.134,2.954,91.401,3.667,91.401,4.504z"/>
	<path fill="#FFFFFF" d="M101.277,30.33h-5.625c0.206-4.712,0.308-9.824,0.308-15.323c0-5.365-0.21-9.921-0.644-13.68L101.277,1
		c-0.206,3.889-0.309,8.56-0.309,14.007C100.968,20.529,101.072,25.644,101.277,30.33z"/>
	<path fill="#FFFFFF" d="M111.756,30.33h-5.625c0.206-4.712,0.308-9.824,0.308-15.323c0-5.365-0.21-9.921-0.644-13.68L111.756,1
		c-0.206,3.889-0.31,8.56-0.31,14.007C111.446,20.529,111.55,25.644,111.756,30.33z"/>
	<path fill="#FFFFFF" d="M133.575,30.312l-4.87,0.159c-0.22-0.57-0.326-1.1-0.326-1.56h-0.273c-1.512,1.292-3.548,1.933-6.121,1.933
		c-1.724,0-3.148-0.478-4.28-1.43c-1.138-0.958-1.698-2.228-1.698-3.813c0-2.089,0.875-3.798,2.643-5.13
		c1.771-1.339,4.866-2.046,9.296-2.128c0.026-0.245,0.04-0.477,0.04-0.702c0-1.486-0.353-2.458-1.074-2.933
		c-0.715-0.478-2.026-0.712-3.932-0.712c-2.08,0-4.114,0.271-6.086,0.822l0.451-3.794c1.871-0.65,4.505-0.972,7.922-0.972
		c2.488,0,4.408,0.523,5.765,1.57c1.35,1.042,2.029,2.874,2.029,5.487c0,0.578-0.023,1.624-0.075,3.155
		c-0.044,1.525-0.067,2.542-0.067,3.046C132.918,26.163,133.137,28.5,133.575,30.312z M128.066,26.024
		c-0.081-1.861-0.121-3.463-0.121-4.812c-4.686,0-7.035,1.188-7.035,3.568c0,1.642,1.028,2.457,3.092,2.457
		C125.623,27.237,126.982,26.834,128.066,26.024z"/>
	<path fill="#FFFFFF" d="M157.258,19.688c0,2.985-0.855,5.602-2.56,7.858c-1.701,2.26-4.051,3.382-7.035,3.382
		c-2.197,0-3.754-0.469-4.663-1.4h-0.269l-0.412,0.802h-4.841c0.173-4.829,0.263-9.934,0.263-15.323
		c0-5.074-0.224-9.634-0.681-13.68L142.982,1c-0.134,3.204-0.205,6.83-0.205,10.868h0.245c1.387-1.221,3.266-1.833,5.634-1.833
		c2.642,0,4.734,0.946,6.276,2.858C156.484,14.799,157.258,17.065,157.258,19.688z M151.767,20.221c0-1.715-0.434-3.206-1.309-4.465
		c-0.874-1.252-2.074-1.89-3.597-1.89c-1.896,0-3.288,0.563-4.169,1.674c0,4.708,0.103,8.244,0.309,10.623
		c0.868,0.677,1.986,1.012,3.366,1.012c1.824,0,3.183-0.678,4.073-2.029C151.326,23.789,151.767,22.153,151.767,20.221z"/>
	<path fill="#FFFFFF" d="M184.029,10.737l-1.199,4.82c-1.021-0.411-2.051-0.613-3.091-0.613c-2.029,0-3.358,0.903-4.007,2.727
		c0,5.485,0.045,9.702,0.13,12.659h-5.496c0.238-4.141,0.354-7.522,0.354-10.146c0-3.275-0.347-6.373-1.028-9.308l5.251-0.567
		c0.242,1.508,0.354,2.395,0.354,2.653h0.33c1.267-1.937,2.951-2.908,5.054-2.908C181.674,10.053,182.785,10.28,184.029,10.737z"/>
	<path fill="#FFFFFF" d="M205.125,30.312l-4.829,0.159c-0.219-0.737-0.328-1.329-0.328-1.766h-0.326
		c-1.803,1.486-3.906,2.223-6.318,2.223c-2.262,0-3.977-0.593-5.121-1.783c-1.152-1.19-1.726-3.567-1.726-7.13
		c0-0.425,0.016-1.021,0.037-1.794c0.018-0.764,0.026-1.441,0.026-2.018c0-1.522-0.127-3.961-0.391-7.299l5.755-0.206
		c-0.219,2.636-0.326,5.137-0.326,7.505c0,3.37,0.244,5.639,0.749,6.801c0.501,1.172,1.488,1.759,2.961,1.759
		c1.606,0,2.993-0.385,4.166-1.16c0-7.225-0.085-12.141-0.252-14.727l5.568-0.178c-0.133,2.599-0.205,5.97-0.205,10.104
		C204.565,23.868,204.753,27.04,205.125,30.312z"/>
	<path fill="#E8FFA1" d="M169.049,24.474c0,1.603-0.551,3.012-1.667,4.236c-1.107,1.219-2.637,1.826-4.593,1.826
		c-1.642,0-2.928-0.523-3.857-1.58c-0.922-1.053-1.375-2.314-1.375-3.791c0-1.599,0.548-2.991,1.657-4.167
		c1.105-1.177,2.656-1.766,4.633-1.766c1.671,0,2.946,0.519,3.855,1.539C168.601,21.79,169.049,23.027,169.049,24.474z"/>
</g>
</svg>
